<?xml version="1.0" encoding="UTF-8"?>
<svg width="150px" height="150px" viewBox="0 0 150 150" version="1.1" xmlns="http://www.w3.org/2000/svg" xmlns:xlink="http://www.w3.org/1999/xlink">
    <title>ASU Logo</title>
    <g id="ASU-Logo" stroke="none" stroke-width="1" fill="none" fill-rule="evenodd">
        <path d="M14.5,47.9 L30.1,47.9 L52.9,102 L36.6,102 L32.4,91 L11.9,91 L7.7,102 L0,102 L14.5,47.9 Z M22.2,56.5 L14.2,82.3 L30.2,82.3 L22.2,56.5 Z" id="A" fill="#8C1D40"></path>
        <path d="M63.6,47.9 C77.8,47.9 83.8,55.4 83.8,61.8 C83.8,67.8 79.8,72.7 74.4,73.7 C80.7,74.4 86.6,79.4 86.6,87.3 C86.6,95.9 79.9,102 67.9,102 L53.1,102 L53.1,47.9 L63.6,47.9 Z M65.2,70.4 C69.7,70.4 72.2,67 72.2,63.2 C72.2,59.4 69.5,56.7 65.7,56.7 L64.1,56.7 L64.1,70.4 L65.2,70.4 Z M65.9,93.3 C71.8,93.3 75,89.7 75,84.5 C75,79.7 71.8,76.5 66.3,76.5 L64.1,76.5 L64.1,93.3 L65.9,93.3 Z" id="B" fill="#8C1D40"></path>
        <path d="M100.8,47.9 L130.5,47.9 L130.5,56.8 L111.8,56.8 L111.8,69.3 L127.3,69.3 L127.3,78.3 L111.8,78.3 L111.8,93.1 L131.1,93.1 L131.1,102 L100.8,102 L100.8,47.9 Z" id="E" fill="#8C1D40"></path>
        <path d="M142.9,47.9 L142.9,102 L131.9,102 L131.9,47.9 L142.9,47.9 Z" id="I" fill="#8C1D40"></path>
    </g>
</svg>